<svg width="471" height="773" viewBox="0 0 471 773" fill="none" xmlns="http://www.w3.org/2000/svg">
<path opacity="0.12" d="M2.11069 140.872C-1.865 147.343 0.974497 355.484 1.09058 381.174C10.7375 392.811 20.4317 406.903 28.8308 419.489C107.237 536.972 189.762 653.023 265.636 772.081L419.835 772.486L424.029 765.069C411.558 734.398 26.8261 167.067 2.11069 140.872ZM468.919 0C324.742 5.05734 145.715 2.42232 0.507479 0.291492C1.17908 43.8997 1.14856 87.5307 0.394052 131.139C49.0496 134.397 117.252 132.374 167.047 132.354L470.619 132.224C468.476 93.0034 469.312 40.1494 468.919 0Z" fill="#e6bf00"/>
</svg>
