<svg width="511" height="123" viewBox="0 0 511 123" fill="none" xmlns="http://www.w3.org/2000/svg">
<path d="M306.168 64.3112C312.993 64.1514 320.302 64.2589 327.165 64.2523C334.234 72.2324 341.235 80.2739 348.165 88.3751C357.632 99.0201 368.505 112.676 378.355 122.392C370.347 121.864 359.439 122.088 351.234 122.033C349.091 118.78 338.014 106.136 335.056 102.735C324.803 90.9424 314.314 77.574 303.585 66.3932C298.608 71.648 294.12 76.3092 288.857 81.3028C289.607 92.8069 288.983 109.758 289.299 122.016C282.297 122.062 275.294 122.144 268.292 122.264C268.184 82.01 267.747 40.3092 268.397 0.14068C275.474 0.388835 282.109 0.318007 289.177 0.227646C288.869 16.2061 290.076 41.452 288.785 56.4843C306.542 37.3559 326.165 19.158 343.65 0.130449C349.792 0.797036 363.424 0.282219 369.817 0L306.168 64.3112ZM42.5595 0.0409251C55.1382 0.859422 74.4377 0.528567 87.3111 0.294149L129.633 122.184C122.681 121.855 113.678 122.072 106.577 122.049C104.511 113.281 99.0871 98.8954 95.9539 89.9686L84.9323 90.1528C67.9304 90.3951 50.9256 90.3609 33.9243 90.0505C30.6792 100.702 26.2277 111.481 23.3375 122.151C15.5585 122.086 7.77838 122.119 0 122.251C7.85292 103.35 15.3829 78.7217 22.2811 58.996C28.7785 40.4173 37.0448 18.6133 42.5595 0.0409251ZM182.869 0.317169C206.269 0.284366 237.327 -2.00906 241.553 29.6144C244.64 52.7222 234.26 69.1329 210.012 72.2532C224.766 88.6906 239.13 105.693 253.825 122.248C248.479 121.869 240.73 122.106 235.209 122.11C233.119 122.144 230.814 122.305 228.746 122.041C225.772 121.66 189.985 78.1175 185.24 72.4911L164.946 72.6855L165.041 122.033L144.003 122.133C144.518 81.9185 144.057 40.707 144.061 0.411808L182.869 0.317169ZM510.515 22.4116C511.143 23.4337 510.694 56.3092 510.676 60.367C509.152 62.2051 507.621 64.4308 506.294 66.4188C493.91 84.975 480.875 103.305 468.891 122.11L444.536 122.174L443.873 121.003C445.843 116.158 506.611 26.5491 510.515 22.4116ZM388.96 101.568C395.367 101.209 402.787 101.403 409.274 101.425L409.455 101.466C410.588 102.753 410.066 118.333 410.31 122.085C403.926 121.999 397.138 122.137 390.724 122.169L390.057 122.102C388.332 120.46 389.141 105.465 388.96 101.568ZM64.1884 1.2124C57.0406 24.9757 47.8615 49.7246 39.8278 73.4119L65.7794 73.4272C73.8596 73.4456 82.2549 73.3412 90.3063 73.4912C87.2291 64.8948 67.1606 3.36896 64.1884 1.2124ZM206.922 18.5263C194.193 16.7976 178.023 17.7964 164.913 17.8894L164.959 55.8576C177.121 55.9945 207.112 58.6404 215.46 51.1359C224.42 40.2392 222.645 20.6618 206.922 18.5263ZM436.783 0.161142C459.555 0.959942 487.833 0.543745 510.768 0.207183C510.662 7.09504 510.667 13.9865 510.786 20.8743C503.101 21.3889 492.328 21.0695 484.463 21.0662L436.514 21.0457C436.853 14.8509 436.721 6.50268 436.783 0.161142Z" fill="white"/>
</svg>
